<svg width="512" height="512" viewBox="0 0 512 512" fill="none" xmlns="http://www.w3.org/2000/svg">
<path d="M440 56H40C22.3269 56 8 70.3269 8 88V344C8 361.673 22.3269 376 40 376H440C457.673 376 472 361.673 472 344V88C472 70.3269 457.673 56 440 56Z" fill="#FFCB6D"/>
<path d="M472 88V97.27L260.23 221.41C254.094 225.005 247.111 226.9 240 226.9C232.889 226.9 225.906 225.005 219.77 221.41L8 97.27V88C7.99635 85.3256 8.32895 82.6614 8.99 80.07C10.0705 80.1969 11.1127 80.5477 12.05 81.1L227.86 207.61C231.542 209.766 235.733 210.903 240 210.903C244.267 210.903 248.458 209.766 252.14 207.61L467.95 81.1C468.887 80.5477 469.929 80.1969 471.01 80.07C471.671 82.6614 472.004 85.3256 472 88Z" fill="#CBA054"/>
<path d="M400 456C457.438 456 504 409.438 504 352C504 294.562 457.438 248 400 248C342.562 248 296 294.562 296 352C296 409.438 342.562 456 400 456Z" fill="#FF6464"/>
<path d="M439.6 399.6C438.549 399.601 437.509 399.395 436.538 398.993C435.567 398.591 434.685 398.001 433.943 397.257L354.743 318.062C353.243 316.562 352.4 314.527 352.399 312.405C352.399 310.283 353.242 308.248 354.742 306.747C356.243 305.247 358.278 304.404 360.4 304.404C362.522 304.404 364.557 305.247 366.057 306.747L445.257 385.942C446.376 387.061 447.138 388.486 447.447 390.038C447.756 391.59 447.598 393.199 446.992 394.661C446.387 396.123 445.361 397.373 444.045 398.252C442.73 399.131 441.183 399.6 439.6 399.6Z" fill="white"/>
<path d="M360.4 399.6C358.817 399.6 357.27 399.131 355.955 398.252C354.639 397.373 353.613 396.123 353.008 394.661C352.402 393.199 352.244 391.59 352.553 390.038C352.862 388.486 353.624 387.061 354.743 385.942L433.943 306.747C435.443 305.247 437.478 304.404 439.6 304.404C441.722 304.404 443.757 305.247 445.258 306.747C446.758 308.248 447.601 310.283 447.601 312.405C447.6 314.527 446.757 316.562 445.257 318.062L366.057 397.257C365.315 398.001 364.433 398.591 363.462 398.993C362.491 399.395 361.451 399.601 360.4 399.6Z" fill="white"/>
</svg>
